<svg width="960" height="720" viewBox="0 0 960 720" fill="none" xmlns="http://www.w3.org/2000/svg" role="img" aria-labelledby="title desc">
  <title id="title">TutorTrack learning illustration</title>
  <desc id="desc">Friendly education dashboard illustration with students, books, and progress cards.</desc>
  <rect width="960" height="720" rx="48" fill="#E0F2FE"/>
  <circle cx="776" cy="118" r="82" fill="#FDE68A"/>
  <circle cx="160" cy="608" r="96" fill="#BBF7D0"/>
  <path d="M146 178c0-37.6 30.4-68 68-68h532c37.6 0 68 30.4 68 68v364c0 37.6-30.4 68-68 68H214c-37.6 0-68-30.4-68-68V178Z" fill="#FFFFFF"/>
  <path d="M146 202c0-50.8 41.2-92 92-92h484c50.8 0 92 41.2 92 92v16H146v-16Z" fill="#0F766E"/>
  <circle cx="224" cy="164" r="16" fill="#FDE68A"/>
  <circle cx="278" cy="164" r="16" fill="#A7F3D0"/>
  <circle cx="332" cy="164" r="16" fill="#BAE6FD"/>
  <rect x="212" y="284" width="238" height="248" rx="28" fill="#F8FAFC" stroke="#D7E2EA" stroke-width="4"/>
  <rect x="510" y="284" width="238" height="116" rx="28" fill="#F0FDFA" stroke="#99F6E4" stroke-width="4"/>
  <rect x="510" y="432" width="238" height="100" rx="28" fill="#FFFBEB" stroke="#FDE68A" stroke-width="4"/>
  <circle cx="330" cy="372" r="54" fill="#38BDF8"/>
  <path d="M286 476c12.8-31.2 43.6-52 77.6-52h11.6c34 0 64.8 20.8 77.6 52" stroke="#0F766E" stroke-width="20" stroke-linecap="round"/>
  <rect x="556" y="328" width="146" height="18" rx="9" fill="#0F766E"/>
  <rect x="556" y="360" width="102" height="14" rx="7" fill="#5EEAD4"/>
  <rect x="556" y="470" width="130" height="16" rx="8" fill="#B45309"/>
  <rect x="556" y="500" width="92" height="12" rx="6" fill="#F59E0B"/>
  <path d="M184 610h584" stroke="#0F172A" stroke-opacity=".08" stroke-width="18" stroke-linecap="round"/>
  <path d="M690 228l34 34 70-78" stroke="#22C55E" stroke-width="26" stroke-linecap="round" stroke-linejoin="round"/>
  <path d="M220 250h186" stroke="#0F172A" stroke-opacity=".12" stroke-width="20" stroke-linecap="round"/>
</svg>
